<?xml version="1.0" standalone="no"?><!DOCTYPE svg PUBLIC "-//W3C//DTD SVG 1.1//EN" "http://www.w3.org/Graphics/SVG/1.1/DTD/svg11.dtd"><svg t="1578279523418" class="icon" viewBox="0 0 1024 1024" version="1.1" xmlns="http://www.w3.org/2000/svg" p-id="2187" xmlns:xlink="http://www.w3.org/1999/xlink" width="200" height="200"><defs><style type="text/css"></style></defs><path d="M670.4 308.352 512 466.752l-158.4-158.4c-12.512-12.512-32.768-12.512-45.248 0s-12.512 32.768 0 45.248l158.4 158.4-158.4 158.4c-12.512 12.512-12.512 32.768 0 45.248 12.48 12.48 32.768 12.512 45.248 0l158.4-158.4 158.4 158.4c12.48 12.48 32.768 12.512 45.248 0 12.512-12.512 12.48-32.768 0-45.248L557.248 512l158.4-158.4c12.512-12.512 12.48-32.768 0-45.248C703.136 295.84 682.88 295.84 670.4 308.352z" p-id="2188" fill="#c8c9cc"></path></svg>